<?xml version="1.0"?>
<svg xmlns="http://www.w3.org/2000/svg" xmlns:xlink="http://www.w3.org/1999/xlink" xmlns:svgjs="http://svgjs.com/svgjs" version="1.1" width="512" height="512" x="0" y="0" viewBox="0 0 512 512" style="enable-background:new 0 0 512 512" xml:space="preserve" class=""><g><g xmlns="http://www.w3.org/2000/svg"><path d="m262.111 390.397c-50.698-36.293-90.787-76.509-127.126-127.823l51.12-35.023-71.209-121.909-62.321 43.591c-36.558 25.572-48.212 74.327-27.107 113.409 58.214 106.768 132.262 180.605 238.912 238.954 37.784 20.741 87.927 9.841 113.439-27.091 14.657-20.947 38.133-54.416 43.429-62.439l-121.028-70.695zm-115.989-171.819-27.722 18.993c-13.935-22.211-26.804-45.967-38.407-70.905l25.421-17.781zm132.52 256.626c-101.432-55.439-171.153-125.056-226.776-226.819-10.824-20.043-8.505-43.977 4.485-61.522 63.532 133.65 159.262 224.353 283.839 283.866-17.551 12.995-41.495 15.308-61.548 4.475zm99.536-53.553c-3.732 5.337-13.491 19.286-17.791 25.435-25.815-11.996-50.374-25.374-73.306-39.929l20.698-26.628z" fill="#1F7A8C" data-original="#000000" style="" class=""/><path d="m449.508 0h-181c-26.191 0-47.5 21.309-47.5 47.5v143.5c0 26.191 21.309 47.5 47.5 47.5h20v78.027l117.041-78.027h43.958c26.191 0 47.5-21.309 47.5-47.5v-143.5c.001-26.191-21.308-47.5-47.499-47.5zm17.5 191c0 9.649-7.851 17.5-17.5 17.5h-53.042l-77.958 51.973v-51.973h-50c-9.649 0-17.5-7.851-17.5-17.5v-143.5c0-9.649 7.851-17.5 17.5-17.5h181c9.649 0 17.5 7.851 17.5 17.5z" fill="#1F7A8C" data-original="#000000" style="" class=""/><path d="m406.56 104.25h-32.552v-32.553h-30v32.553h-32.552v30h32.552v32.553h30v-32.553h32.552z" fill="#1F7A8C" data-original="#000000" style="" class=""/></g></g></svg>
